<?xml version="1.0" encoding="utf-8"?>
<!-- Generator: Adobe Illustrator 22.1.0, SVG Export Plug-In . SVG Version: 6.00 Build 0)  -->
<svg version="1.1" xmlns="http://www.w3.org/2000/svg" xmlns:xlink="http://www.w3.org/1999/xlink" x="0px" y="0px"
	 viewBox="0 0 484 477" style="enable-background:new 0 0 484 477;" xml:space="preserve">
<style type="text/css">
	.st0{fill:none;}
	.st1{fill:#00d1b2;}
</style>
<g id="Layer_2">
</g>
<g id="Layer_1">
	<g>
		<path class="st0" d="M65.7,525.6"/>
	</g>
	<g>
		<path class="st1" d="M232.7,166.5c-12.3-15.5-28.9-23.3-49.9-23.3c-9.1,0-17.3,1.5-24.6,4.6c-7.3,3.1-15.2,8.7-23.6,16.7l2.3-17.3
			H98.5L68.7,365h39l10.8-80.5c5.3,8.6,12,15.1,20.3,19.6c8.3,4.5,17.3,6.7,27,6.7c14.4,0,28.3-4,41.6-11.9s23.9-19.1,31.8-33.3
			c7.9-14.3,11.8-29.2,11.8-45C251.2,200,245,182,232.7,166.5z M197.8,259.3c-9.6,10.3-21.2,15.4-35,15.4
			c-11.8,0-21.3-3.8-28.5-11.5c-7.2-7.6-10.8-17.8-10.8-30.3c0-9.6,2.4-19,7.2-28.2c4.8-9.2,10.7-16,17.9-20.3
			c7.1-4.4,15.4-6.5,24.7-6.5c11.4,0,20.8,3.8,28,11.5c7.3,7.7,10.9,17.8,10.9,30.2C212.2,235.8,207.4,249.1,197.8,259.3z"/>
		<path class="st1" d="M440.2,174.8l-36.5-87.4l-57.5,75.3l26.4,3.4l-8.3,61c-2.5,18.8-6.5,31.3-12,37.5s-13.2,9.2-23.2,9.2
			c-7.8,0-14.2-2.4-19.1-7.2c-4.9-4.8-7.3-10.7-7.3-17.7c0-4.5,0.6-11.2,1.8-20.2l11.1-81.4h-38.7l-8.9,60.6
			c-2.6,17.2-3.8,31.2-3.8,42.2c0,17.9,5.8,32.5,17.3,43.7c11.6,11.3,27.1,16.9,46.7,16.9c13.9,0,26-2.8,36.3-8.5
			c10.3-5.7,18.5-13.8,24.7-24.4c6.2-10.6,10.6-25.6,13.3-44.9l8.3-62L440.2,174.8z"/>
	</g>
</g>
</svg>
