<?xml version="1.0" standalone="no"?>
<!DOCTYPE svg PUBLIC "-//W3C//DTD SVG 20010904//EN"
 "http://www.w3.org/TR/2001/REC-SVG-20010904/DTD/svg10.dtd">
<svg version="1.0" xmlns="http://www.w3.org/2000/svg"
 width="968.000000pt" height="968.000000pt" viewBox="0 0 968.000000 968.000000"
 preserveAspectRatio="xMidYMid meet">
<metadata>
Created by potrace 1.11, written by Peter Selinger 2001-2013
</metadata>
<g transform="translate(0.000000,968.000000) scale(0.100000,-0.100000)"
fill="#000000" stroke="none">
<path d="M8054 7838 c-10 -14 -28 -38 -39 -54 -11 -15 -38 -50 -60 -78 -22
-28 -54 -69 -70 -91 -16 -22 -35 -47 -42 -55 -7 -8 -62 -80 -123 -160 -60 -80
-119 -156 -130 -170 -29 -38 -102 -135 -125 -166 -11 -16 -31 -42 -45 -59 -14
-16 -72 -91 -128 -165 -213 -282 -292 -386 -319 -419 -52 -63 -50 -68 30 -76
40 -5 79 -9 87 -10 8 0 42 -5 75 -9 101 -14 108 -15 160 -21 28 -3 59 -8 70
-10 11 -2 28 -4 38 -4 15 -1 17 -7 13 -43 -3 -24 -8 -61 -11 -83 -3 -22 -8
-60 -11 -85 -4 -25 -7 -55 -7 -67 -1 -13 -3 -23 -6 -23 -4 0 -7 -17 -8 -38 -1
-20 -4 -50 -6 -67 -3 -16 -7 -55 -11 -85 -3 -30 -8 -66 -11 -80 -3 -14 -7 -45
-10 -70 -3 -25 -7 -54 -9 -65 -2 -11 -7 -47 -11 -80 -3 -33 -10 -80 -15 -105
-4 -25 -8 -52 -8 -60 0 -8 -3 -31 -6 -50 -3 -19 -8 -55 -11 -80 -3 -25 -8 -56
-10 -70 -6 -38 -17 -122 -20 -150 -2 -14 -4 -25 -5 -25 -1 0 -3 -9 -4 -20 -3
-19 -18 -115 -21 -125 -17 -73 -36 -160 -34 -162 1 -2 -3 -13 -10 -26 -7 -13
-14 -31 -16 -40 -8 -37 -43 -124 -54 -135 -6 -6 -11 -19 -11 -29 0 -10 -4 -18
-9 -18 -5 0 -13 -9 -16 -20 -15 -48 -117 -144 -195 -183 -58 -30 -83 -40 -140
-54 -96 -24 -259 -21 -350 6 -41 12 -84 28 -95 35 -11 7 -24 15 -30 17 -39 14
-138 122 -174 189 -18 33 -29 60 -25 60 3 0 2 6 -4 13 -16 19 -28 111 -26 202
1 44 3 80 4 80 2 0 10 106 13 162 1 24 4 43 7 43 3 0 5 12 6 28 1 15 4 47 7
72 4 25 9 63 12 85 3 22 10 72 15 110 5 39 13 93 16 120 3 28 8 59 10 70 3 18
7 39 20 136 2 20 7 59 10 85 11 95 13 109 14 109 1 0 3 11 5 25 7 60 16 128
19 146 2 10 7 48 12 84 4 36 8 67 9 70 1 3 5 34 10 70 10 80 12 96 19 140 3
19 8 55 11 80 3 25 7 54 9 65 7 36 19 139 20 175 l1 34 -375 1 c-206 1 -380
-1 -387 -3 -6 -2 -10 -11 -8 -20 1 -9 0 -21 -3 -27 -4 -5 -7 -23 -9 -40 -3
-35 -10 -87 -17 -130 -12 -74 -19 -122 -19 -142 -1 -13 -5 -23 -10 -23 -4 0
-5 -4 -2 -10 3 -5 1 -36 -4 -67 -6 -32 -13 -76 -16 -98 -3 -23 -7 -52 -10 -65
-3 -14 -7 -45 -10 -70 -3 -25 -10 -72 -15 -105 -9 -56 -16 -110 -25 -180 -3
-16 -7 -41 -10 -55 -3 -14 -8 -43 -10 -65 -5 -51 -14 -122 -22 -160 -3 -16 -7
-41 -8 -55 -2 -14 -4 -25 -5 -25 0 0 -3 -16 -4 -35 -4 -44 -15 -133 -21 -181
-24 -171 -36 -537 -22 -664 15 -139 51 -270 108 -390 28 -60 69 -135 79 -145
3 -3 18 -23 34 -45 31 -42 200 -215 211 -215 3 0 28 -17 56 -37 28 -21 55 -37
60 -36 5 2 9 -1 9 -5 0 -21 262 -124 350 -138 8 -2 26 -5 40 -8 36 -9 119 -19
158 -20 17 0 32 -3 32 -6 0 -7 223 -3 315 5 79 7 120 12 120 15 0 2 10 4 65
13 262 45 577 240 744 462 25 33 49 65 54 70 48 59 135 236 177 360 15 44 31
89 35 100 8 20 20 62 27 99 2 10 12 57 24 105 25 106 27 118 34 167 4 21 8 50
11 64 2 14 9 59 14 100 6 41 13 89 15 105 3 17 8 52 11 78 9 77 13 102 14 102
1 0 3 14 4 30 3 26 13 113 21 170 2 11 4 20 5 20 1 0 3 23 6 50 6 62 12 110
14 110 0 0 3 18 5 40 3 21 7 55 10 75 3 19 8 55 11 80 3 25 7 56 9 70 2 14 7
48 10 75 3 28 8 61 10 75 2 14 7 45 11 70 3 25 7 52 9 60 3 19 35 18 215 -6
14 -2 43 -5 65 -8 46 -6 100 -13 165 -23 25 -4 60 -7 78 -7 17 -1 32 -4 32 -8
0 -4 7 -5 15 -2 16 7 11 43 -7 55 -5 3 -9 10 -9 15 1 5 -6 27 -16 49 -9 22
-17 42 -18 45 -1 3 -9 23 -19 45 -31 71 -80 190 -81 195 -1 3 -10 26 -22 51
-11 25 -26 63 -33 85 -7 21 -16 41 -19 44 -3 3 -26 55 -50 115 -25 61 -55 133
-68 162 -13 28 -23 55 -23 58 0 3 -8 25 -19 48 -10 23 -37 87 -61 142 -23 55
-48 113 -56 129 -8 16 -14 32 -14 36 0 4 -41 104 -90 221 -50 118 -94 223 -98
233 -8 18 -9 17 -28 -6z"/>
<path d="M3520 6739 c-112 -13 -144 -18 -179 -28 -18 -6 -36 -10 -40 -9 -3 1
-13 -2 -21 -5 -8 -3 -46 -18 -84 -32 -62 -23 -164 -72 -176 -85 -3 -3 -29 -21
-58 -39 -30 -19 -59 -39 -65 -45 -7 -6 -35 -29 -62 -51 -28 -22 -68 -56 -90
-77 -44 -41 -59 -47 -51 -20 3 9 8 44 12 77 3 33 8 69 10 80 3 11 7 43 10 70
3 28 7 59 8 71 4 20 2 20 -373 18 -207 0 -381 -2 -386 -3 -6 0 -11 -13 -11
-28 -2 -26 -9 -82 -19 -143 -2 -14 -7 -52 -10 -85 -4 -33 -8 -67 -10 -75 -4
-16 -12 -69 -20 -140 -3 -25 -7 -56 -10 -70 -3 -14 -7 -45 -10 -70 -2 -25 -6
-56 -9 -69 -3 -13 -8 -49 -11 -79 -3 -30 -8 -69 -11 -86 -4 -17 -7 -50 -8 -73
0 -24 -3 -43 -6 -43 -4 0 -6 -10 -7 -22 0 -13 -3 -41 -7 -64 -4 -23 -9 -59
-11 -80 -3 -21 -7 -52 -9 -69 -15 -94 -17 -113 -20 -140 -5 -47 -18 -148 -22
-170 -2 -11 -7 -40 -10 -65 -5 -46 -11 -92 -20 -145 -3 -16 -7 -48 -9 -70 -2
-22 -5 -40 -6 -40 -1 0 -3 -16 -5 -35 -2 -19 -6 -48 -8 -65 -2 -16 -7 -52 -11
-80 -3 -27 -8 -62 -11 -76 -2 -15 -6 -47 -9 -70 -3 -24 -8 -55 -10 -69 -2 -14
-7 -49 -10 -79 -4 -30 -9 -63 -11 -75 -2 -12 -6 -41 -9 -66 -3 -25 -10 -74
-15 -110 -5 -36 -12 -83 -14 -105 -3 -22 -8 -60 -12 -85 -4 -25 -7 -57 -8 -72
-1 -16 -3 -28 -6 -28 -3 0 -6 -15 -7 -32 -1 -39 -10 -114 -17 -149 -3 -13 -8
-46 -12 -74 -12 -97 -14 -110 -18 -140 -11 -85 -21 -160 -31 -230 -4 -27 -9
-61 -11 -75 -2 -14 -5 -41 -8 -60 -3 -19 -10 -75 -16 -125 -6 -49 -13 -101
-16 -115 -2 -14 -7 -45 -10 -70 -3 -25 -7 -56 -9 -70 -7 -47 -28 -203 -40
-295 -4 -27 -8 -54 -9 -60 0 -7 134 -10 388 -10 338 0 389 2 391 15 2 8 6 35
9 60 4 25 9 56 11 70 2 14 7 50 10 80 3 30 8 66 11 80 6 31 12 79 19 145 3 28
8 62 10 76 3 15 7 44 10 65 2 22 7 62 11 89 4 28 8 61 9 75 1 14 3 25 5 25 1
0 3 16 5 35 4 44 14 127 20 160 3 14 7 45 10 70 3 25 8 63 11 85 4 22 8 51 9
65 6 50 16 126 20 150 2 14 7 48 10 75 4 28 9 64 12 80 3 17 6 42 7 57 3 43
11 42 41 -4 95 -143 251 -280 406 -356 93 -45 237 -95 255 -88 6 2 16 0 20 -4
27 -27 368 -30 489 -5 11 2 31 6 45 10 14 3 34 7 45 9 44 10 162 46 200 61
134 54 276 126 321 164 7 6 15 7 18 4 3 -4 6 -2 6 3 0 5 15 18 33 29 82 48
255 204 332 300 17 21 47 58 67 84 21 25 47 62 58 81 11 19 29 49 40 65 38 59
81 140 87 163 3 12 8 22 12 22 4 0 13 17 20 38 8 20 22 55 32 77 21 48 67 187
74 224 10 54 14 71 18 79 3 4 8 32 12 62 4 30 8 66 10 80 2 14 5 45 6 70 1 25
6 51 12 58 6 8 6 12 -1 12 -6 0 -9 10 -6 23 8 36 1 238 -11 315 -3 17 -8 49
-11 70 -6 40 -9 56 -23 117 -15 63 -18 76 -41 145 -12 36 -29 78 -37 93 -8 16
-16 38 -19 50 -2 11 -9 24 -16 29 -7 4 -9 8 -5 8 5 0 -1 14 -13 30 -12 17 -18
30 -15 30 3 0 -3 13 -14 29 -12 16 -21 34 -21 40 0 6 -4 11 -10 11 -5 0 -10 6
-10 14 0 8 -3 16 -7 18 -5 2 -15 15 -23 29 -33 57 -154 204 -217 262 -108 99
-293 214 -393 242 -14 4 -29 11 -35 15 -5 4 -37 14 -70 21 -33 7 -62 13 -65
14 -12 3 -89 15 -128 20 -71 10 -243 12 -312 4z m116 -702 c90 -17 227 -76
279 -121 17 -14 34 -26 38 -26 16 0 132 -130 150 -167 5 -13 14 -23 19 -23 4
0 8 -5 8 -11 0 -6 9 -24 21 -40 11 -16 18 -29 14 -29 -3 0 1 -13 9 -29 25 -47
56 -171 62 -246 3 -38 7 -76 9 -82 3 -7 -1 -13 -8 -13 -8 0 -8 -3 -2 -8 11 -8
11 -52 1 -172 -10 -110 -45 -255 -82 -337 -8 -17 -14 -36 -14 -42 0 -6 -4 -11
-10 -11 -5 0 -9 -3 -8 -7 8 -29 -113 -197 -211 -291 -150 -147 -354 -245 -533
-257 -25 -1 -50 -5 -55 -7 -11 -6 -148 -1 -203 8 -25 4 -51 7 -57 7 -7 0 -13
3 -13 7 0 3 -14 7 -30 8 -39 3 -165 61 -221 102 -44 32 -96 79 -135 122 -23
26 -104 143 -104 150 0 3 -8 23 -17 44 -9 22 -17 41 -18 44 -1 3 -5 12 -8 20
-4 8 -8 27 -11 42 -3 15 -7 31 -9 35 -13 21 -21 121 -21 243 0 155 4 187 48
350 22 78 125 294 158 329 10 11 18 24 18 28 0 12 48 70 115 138 125 128 304
220 468 240 29 4 54 9 56 11 6 5 260 -2 297 -9z"/>
</g>
</svg>
