<svg xmlns="http://www.w3.org/2000/svg" viewBox="0 0 1016.51 282.86"><defs><style>.cls-1{fill:#fff;}</style></defs><title>Asset 4</title><g id="Layer_2" data-name="Layer 2"><g id="Layer_1-2" data-name="Layer 1"><path class="cls-1" d="M164,84.38q-18.44-23.29-49.93-23.3a62.36,62.36,0,0,0-24.6,4.65q-11,4.65-23.59,16.74l2.31-17.28H29.74L0,282.86H39l10.79-80.53a53.5,53.5,0,0,0,20.32,19.6,55.84,55.84,0,0,0,27.05,6.73q21.63,0,41.59-11.94a87,87,0,0,0,31.8-33.32,91.48,91.48,0,0,0,11.85-45Q182.43,107.67,164,84.38Zm-34.9,92.87q-14.37,15.38-35,15.38-17.72,0-28.52-11.48T54.79,150.82A60.35,60.35,0,0,1,62,122.65q7.19-13.79,17.85-20.32t24.75-6.53q17.13,0,28,11.5t10.88,30.25Q143.46,161.86,129.09,177.25Z"/><path class="cls-1" d="M249.37,0a23.27,23.27,0,0,0-17.06,7.1,23.28,23.28,0,0,0-7.11,17.07,23.28,23.28,0,0,0,7.11,17.07,24.06,24.06,0,0,0,34.13,0,23.31,23.31,0,0,0,7.1-17.07,23.31,23.31,0,0,0-7.1-17.07A23.31,23.31,0,0,0,249.37,0Z"/><polygon class="cls-1" points="261.25 65.19 222.51 65.19 206.2 184.6 179.06 181.1 215.54 268.52 273.02 193.23 244.49 189.54 261.25 65.19"/><path class="cls-1" d="M346,105.09q12.29-6.8,28.25-6.8,23.71,0,37.77,17.84l33.09-18q-23.16-37-70.2-37-41.77,0-68.29,27.18T280.13,154q0,33.69,21.47,54.19t58.7,20.51q23.88,0,43.31-8.81a90.49,90.49,0,0,0,32.46-24.36l-30.74-21.73q-14.94,18.87-42.9,18.87-20.21,0-31.77-11.12T319.1,152a54.21,54.21,0,0,1,7.32-27.21A50.48,50.48,0,0,1,346,105.09Z"/><path class="cls-1" d="M538.08,105.09q12.28-6.8,28.25-6.8,23.71,0,37.77,17.84l33.09-18q-23.16-37-70.2-37-41.78,0-68.29,27.18T472.17,154q0,33.69,21.47,54.19t58.7,20.51q23.89,0,43.31-8.81a90.49,90.49,0,0,0,32.46-24.36l-30.74-21.73q-14.94,18.87-42.9,18.87-20.21,0-31.77-11.12T511.14,152a54.21,54.21,0,0,1,7.32-27.21A50.48,50.48,0,0,1,538.08,105.09Z"/><path class="cls-1" d="M998.08,84.38q-18.44-23.29-49.94-23.3a62.4,62.4,0,0,0-24.6,4.65q-11,4.65-23.59,16.74l2.31-17.28H863.82L834.08,282.86h39l10.79-80.53a53.5,53.5,0,0,0,20.32,19.6,55.87,55.87,0,0,0,27,6.73q21.63,0,41.59-11.94a87.07,87.07,0,0,0,31.81-33.32,91.58,91.58,0,0,0,11.84-45Q1016.51,107.67,998.08,84.38Zm-34.9,92.87q-14.37,15.38-35,15.38-17.7,0-28.52-11.48t-10.81-30.33a60.47,60.47,0,0,1,7.18-28.17q7.19-13.79,17.85-20.32t24.75-6.53q17.13,0,28,11.5t10.88,30.25Q977.54,161.86,963.18,177.25Z"/><path class="cls-1" d="M847.47,92.72,811,5.3,753.51,80.6,780,84l-8.33,61q-3.82,28.28-12,37.5t-23.24,9.23q-11.74,0-19.07-7.18A23.8,23.8,0,0,1,710,166.85a169.82,169.82,0,0,1,1.76-20.22L722.9,65.19H684.2l-8.88,60.62q-3.84,25.78-3.83,42.18,0,26.82,17.33,43.75t46.7,16.92q20.85,0,36.28-8.49a64.33,64.33,0,0,0,24.74-24.38q9.33-15.9,13.3-44.89l8.25-62Z"/></g></g></svg>